<svg xmlns="http://www.w3.org/2000/svg" xmlns:xlink="http://www.w3.org/1999/xlink" width="500" zoomAndPan="magnify" viewBox="0 0 375 374.999991" height="500" preserveAspectRatio="xMidYMid meet" version="1.0"><defs><g/><clipPath id="2bcf857abd"><path d="M 345.671875 208.476562 L 374.027344 208.476562 L 374.027344 236.832031 L 345.671875 236.832031 Z M 345.671875 208.476562 " clip-rule="nonzero"/></clipPath><clipPath id="52561435bf"><path d="M 359.851562 208.476562 C 352.019531 208.476562 345.671875 214.824219 345.671875 222.652344 C 345.671875 230.484375 352.019531 236.832031 359.851562 236.832031 C 367.679688 236.832031 374.027344 230.484375 374.027344 222.652344 C 374.027344 214.824219 367.679688 208.476562 359.851562 208.476562 Z M 359.851562 208.476562 " clip-rule="nonzero"/></clipPath><clipPath id="ae90ac9837"><path d="M 0.671875 0.476562 L 29.027344 0.476562 L 29.027344 28.832031 L 0.671875 28.832031 Z M 0.671875 0.476562 " clip-rule="nonzero"/></clipPath><clipPath id="3784ba2b4b"><path d="M 14.851562 0.476562 C 7.019531 0.476562 0.671875 6.824219 0.671875 14.652344 C 0.671875 22.484375 7.019531 28.832031 14.851562 28.832031 C 22.679688 28.832031 29.027344 22.484375 29.027344 14.652344 C 29.027344 6.824219 22.679688 0.476562 14.851562 0.476562 Z M 14.851562 0.476562 " clip-rule="nonzero"/></clipPath><clipPath id="9c53fbb4a2"><rect x="0" width="30" y="0" height="29"/></clipPath></defs><g fill="#093961" fill-opacity="1"><g transform="translate(14.003214, 232.499985)"><g><path d="M 6.875 0 L 6.875 -91.546875 L 44.359375 -91.546875 C 51.285156 -91.546875 57.253906 -90.234375 62.265625 -87.609375 C 67.285156 -84.992188 71.15625 -81.316406 73.875 -76.578125 C 76.601562 -71.847656 77.96875 -66.332031 77.96875 -60.03125 C 77.96875 -53.757812 76.582031 -48.28125 73.8125 -43.59375 C 71.050781 -38.90625 67.117188 -35.269531 62.015625 -32.6875 C 56.921875 -30.101562 50.851562 -28.8125 43.8125 -28.8125 L 20.21875 -28.8125 L 20.21875 -46.203125 L 40.421875 -46.203125 C 43.742188 -46.203125 46.53125 -46.785156 48.78125 -47.953125 C 51.03125 -49.117188 52.738281 -50.734375 53.90625 -52.796875 C 55.082031 -54.867188 55.671875 -57.28125 55.671875 -60.03125 C 55.671875 -62.851562 55.082031 -65.285156 53.90625 -67.328125 C 52.738281 -69.378906 51.03125 -70.96875 48.78125 -72.09375 C 46.53125 -73.21875 43.742188 -73.78125 40.421875 -73.78125 L 28.625 -73.78125 L 28.625 0 Z M 6.875 0 "/></g></g></g><g fill="#093961" fill-opacity="1"><g transform="translate(93.380539, 232.499985)"><g><path d="M 26.171875 1.234375 C 21.785156 1.234375 17.894531 0.488281 14.5 -1 C 11.101562 -2.5 8.441406 -4.722656 6.515625 -7.671875 C 4.585938 -10.628906 3.625 -14.359375 3.625 -18.859375 C 3.625 -22.628906 4.289062 -25.800781 5.625 -28.375 C 6.957031 -30.957031 8.800781 -33.054688 11.15625 -34.671875 C 13.507812 -36.296875 16.222656 -37.535156 19.296875 -38.390625 C 22.367188 -39.253906 25.644531 -39.832031 29.125 -40.125 C 33.007812 -40.445312 36.140625 -40.800781 38.515625 -41.1875 C 40.898438 -41.582031 42.625 -42.15625 43.6875 -42.90625 C 44.75 -43.664062 45.28125 -44.722656 45.28125 -46.078125 L 45.28125 -46.390625 C 45.28125 -47.898438 44.910156 -49.195312 44.171875 -50.28125 C 43.429688 -51.375 42.375 -52.207031 41 -52.78125 C 39.632812 -53.351562 37.96875 -53.640625 36 -53.640625 C 34.03125 -53.640625 32.296875 -53.34375 30.796875 -52.75 C 29.304688 -52.15625 28.082031 -51.320312 27.125 -50.25 C 26.164062 -49.1875 25.519531 -47.941406 25.1875 -46.515625 L 5.71875 -48.46875 C 6.488281 -52.570312 8.175781 -56.148438 10.78125 -59.203125 C 13.382812 -62.253906 16.835938 -64.617188 21.140625 -66.296875 C 25.441406 -67.972656 30.519531 -68.8125 36.375 -68.8125 C 40.71875 -68.8125 44.726562 -68.304688 48.40625 -67.296875 C 52.09375 -66.296875 55.296875 -64.820312 58.015625 -62.875 C 60.742188 -60.9375 62.851562 -58.550781 64.34375 -55.71875 C 65.84375 -52.894531 66.59375 -49.640625 66.59375 -45.953125 L 66.59375 0 L 46.328125 0 L 46.328125 -9.515625 L 45.828125 -9.515625 C 44.597656 -7.179688 43.050781 -5.21875 41.1875 -3.625 C 39.332031 -2.03125 37.15625 -0.820312 34.65625 0 C 32.15625 0.820312 29.328125 1.234375 26.171875 1.234375 Z M 32.6875 -12.90625 C 35.0625 -12.90625 37.222656 -13.382812 39.171875 -14.34375 C 41.117188 -15.3125 42.65625 -16.644531 43.78125 -18.34375 C 44.90625 -20.039062 45.46875 -21.992188 45.46875 -24.203125 L 45.46875 -30.65625 C 44.894531 -30.332031 44.15625 -30.035156 43.25 -29.765625 C 42.351562 -29.503906 41.367188 -29.25 40.296875 -29 C 39.234375 -28.75 38.140625 -28.53125 37.015625 -28.34375 C 35.890625 -28.164062 34.796875 -27.992188 33.734375 -27.828125 C 31.679688 -27.546875 29.914062 -27.054688 28.4375 -26.359375 C 26.96875 -25.660156 25.84375 -24.78125 25.0625 -23.71875 C 24.289062 -22.65625 23.90625 -21.363281 23.90625 -19.84375 C 23.90625 -18.375 24.28125 -17.113281 25.03125 -16.0625 C 25.789062 -15.019531 26.828125 -14.234375 28.140625 -13.703125 C 29.453125 -13.171875 30.96875 -12.90625 32.6875 -12.90625 Z M 32.6875 -12.90625 "/></g></g></g><g fill="#093961" fill-opacity="1"><g transform="translate(166.79848, 232.499985)"><g><path d="M 20.828125 0 L 0.796875 -67.828125 L 23.15625 -67.828125 L 28.203125 -45.03125 C 29.179688 -40.28125 30.234375 -35.234375 31.359375 -29.890625 C 32.484375 -24.546875 33.519531 -18.820312 34.46875 -12.71875 L 32.140625 -12.71875 C 33.160156 -18.78125 34.304688 -24.492188 35.578125 -29.859375 C 36.847656 -35.222656 38.035156 -40.28125 39.140625 -45.03125 L 44.546875 -67.828125 L 63.59375 -67.828125 L 68.875 -45.03125 C 69.9375 -40.28125 71.09375 -35.234375 72.34375 -29.890625 C 73.59375 -24.546875 74.75 -18.820312 75.8125 -12.71875 L 73.546875 -12.71875 C 74.484375 -18.78125 75.472656 -24.484375 76.515625 -29.828125 C 77.566406 -35.171875 78.582031 -40.238281 79.5625 -45.03125 L 84.546875 -67.828125 L 107.265625 -67.828125 L 87.125 0 L 65.25 0 L 58.1875 -24.578125 C 57.488281 -26.953125 56.800781 -29.65625 56.125 -32.6875 C 55.445312 -35.71875 54.789062 -38.796875 54.15625 -41.921875 C 53.519531 -45.054688 52.851562 -47.914062 52.15625 -50.5 L 55.78125 -50.5 C 55.125 -47.914062 54.46875 -45.054688 53.8125 -41.921875 C 53.164062 -38.796875 52.515625 -35.71875 51.859375 -32.6875 C 51.203125 -29.65625 50.503906 -26.953125 49.765625 -24.578125 L 42.640625 0 Z M 20.828125 0 "/></g></g></g><g fill="#093961" fill-opacity="1"><g transform="translate(274.867241, 232.499985)"><g><path d="M 6.875 0 L 6.875 -12.65625 L 38.640625 -50.8125 L 38.640625 -51.171875 L 7.734375 -51.171875 L 7.734375 -67.828125 L 64.078125 -67.828125 L 64.078125 -54 L 34.28125 -17.015625 L 34.28125 -16.65625 L 65.0625 -16.65625 L 65.0625 0 Z M 6.875 0 "/></g></g></g><g clip-path="url(#2bcf857abd)"><g clip-path="url(#52561435bf)"><g transform="matrix(1, 0, 0, 1, 345, 208)"><g clip-path="url(#9c53fbb4a2)"><g clip-path="url(#ae90ac9837)"><g clip-path="url(#3784ba2b4b)"><path fill="#da873b" d="M 0.671875 0.476562 L 29.027344 0.476562 L 29.027344 28.832031 L 0.671875 28.832031 Z M 0.671875 0.476562 " fill-opacity="1" fill-rule="nonzero"/></g></g></g></g></g></g></svg>